<svg width="60" height="60" viewBox="0 0 60 60" fill="none" xmlns="http://www.w3.org/2000/svg">
<g id="assignment_24px">
<path id="icon/action/assignment_24px" fill-rule="evenodd" clip-rule="evenodd" d="M47.5 10H37.05C36 7.1 33.25 5 30 5C26.75 5 24 7.1 22.95 10H12.5C9.75 10 7.5 12.25 7.5 15V50C7.5 52.75 9.75 55 12.5 55H47.5C50.25 55 52.5 52.75 52.5 50V15C52.5 12.25 50.25 10 47.5 10ZM30 10C31.375 10 32.5 11.125 32.5 12.5C32.5 13.875 31.375 15 30 15C28.625 15 27.5 13.875 27.5 12.5C27.5 11.125 28.625 10 30 10ZM20 45H32.5C33.875 45 35 43.875 35 42.5C35 41.125 33.875 40 32.5 40H20C18.625 40 17.5 41.125 17.5 42.5C17.5 43.875 18.625 45 20 45ZM40 35H20C18.625 35 17.5 33.875 17.5 32.5C17.5 31.125 18.625 30 20 30H40C41.375 30 42.5 31.125 42.5 32.5C42.5 33.875 41.375 35 40 35ZM20 25H40C41.375 25 42.5 23.875 42.5 22.5C42.5 21.125 41.375 20 40 20H20C18.625 20 17.5 21.125 17.5 22.5C17.5 23.875 18.625 25 20 25Z" fill="#F8941E"/>
</g>
</svg>
